<?xml version="1.0" encoding="UTF-8" standalone="no"?>
<!DOCTYPE svg PUBLIC "-//W3C//DTD SVG 1.1//EN" "http://www.w3.org/Graphics/SVG/1.1/DTD/svg11.dtd">
<svg width="100%" height="100%" viewBox="0 0 704 286" version="1.1" xmlns="http://www.w3.org/2000/svg" xmlns:xlink="http://www.w3.org/1999/xlink" xml:space="preserve" xmlns:serif="http://www.serif.com/" style="fill-rule:evenodd;clip-rule:evenodd;stroke-linejoin:round;stroke-miterlimit:2;">
    <g transform="matrix(1,0,0,1,0.371076,-48.1212)">
        <path d="M85.37,205.76L85.37,209.08C85.37,210.18 85.31,211.22 85.21,212.21L25.83,212.21C26.05,214.51 26.73,216.6 27.89,218.46C29.04,220.33 30.52,221.94 32.33,223.31C34.14,224.68 36.17,225.75 38.42,226.52C40.67,227.29 43,227.67 45.41,227.67C49.69,227.67 53.31,226.88 56.27,225.28C59.23,223.69 61.64,221.64 63.51,219.11L82.26,230.95C78.42,236.54 73.35,240.85 67.04,243.86C60.73,246.87 53.41,248.38 45.08,248.38C38.94,248.38 33.13,247.42 27.64,245.5C22.16,243.58 17.36,240.79 13.25,237.11C9.14,233.44 5.9,228.91 3.54,223.54C1.18,218.17 0,212.03 0,205.12C0,198.21 1.15,192.37 3.45,186.94C5.75,181.51 8.88,176.91 12.83,173.12C16.78,169.33 21.44,166.4 26.81,164.32C32.18,162.24 38,161.19 44.25,161.19C50.5,161.19 55.82,162.21 60.86,164.23C65.9,166.26 70.24,169.19 73.86,173.03C77.48,176.87 80.3,181.53 82.33,187.01C84.36,192.49 85.37,198.75 85.37,205.76ZM60.53,195.43C60.53,191.15 59.19,187.48 56.5,184.41C53.81,181.34 49.78,179.8 44.41,179.8C41.78,179.8 39.37,180.21 37.17,181.03C34.97,181.85 33.06,182.98 31.41,184.4C29.76,185.83 28.45,187.5 27.46,189.42C26.47,191.34 25.92,193.34 25.81,195.42L60.52,195.42L60.53,195.43Z" style="fill:rgb(0,142,143);fill-rule:nonzero;"/>
    </g>
    <g transform="matrix(1,0,0,1,0.371076,-48.1212)">
        <path d="M100.01,175.03C104.83,170.42 110.46,166.97 116.87,164.67C123.29,162.37 129.84,161.22 136.53,161.22C143.22,161.22 149.28,162.07 154.05,163.77C158.82,165.47 162.69,168.1 165.65,171.67C168.61,175.23 170.77,179.73 172.15,185.16C173.52,190.59 174.21,197.03 174.21,204.49L174.21,245.78L149.54,245.78L149.54,237.06L149.05,237.06C146.97,240.46 143.81,243.09 139.59,244.96C135.37,246.82 130.79,247.76 125.86,247.76C122.57,247.76 119.17,247.32 115.66,246.44C112.15,245.56 108.94,244.14 106.04,242.16C103.13,240.19 100.75,237.55 98.88,234.26C97.01,230.97 96.08,226.91 96.08,222.09C96.08,216.17 97.7,211.4 100.93,207.78C104.16,204.16 108.33,201.36 113.43,199.39C118.53,197.42 124.2,196.1 130.45,195.44C136.7,194.78 142.79,194.45 148.71,194.45L148.71,193.13C148.71,189.07 147.28,186.09 144.43,184.17C141.58,182.25 138.07,181.29 133.9,181.29C130.06,181.29 126.36,182.11 122.8,183.76C119.24,185.41 116.19,187.38 113.67,189.68L100.02,175.04L100.01,175.03ZM149.52,210.07L146.07,210.07C143.11,210.07 140.12,210.21 137.11,210.48C134.09,210.75 131.41,211.28 129.05,212.04C126.69,212.81 124.74,213.93 123.21,215.41C121.67,216.89 120.91,218.84 120.91,221.25C120.91,222.79 121.26,224.1 121.98,225.2C122.69,226.3 123.6,227.17 124.69,227.83C125.79,228.49 127.05,228.96 128.47,229.23C129.89,229.51 131.27,229.64 132.58,229.64C138.06,229.64 142.26,228.13 145.16,225.12C148.06,222.11 149.52,218.02 149.52,212.87L149.52,210.07Z" style="fill:rgb(0,142,143);fill-rule:nonzero;"/>
    </g>
    <g transform="matrix(1,0,0,1,0.371076,-48.1212)">
        <path d="M242.46,188.02C240.27,185.94 237.69,184.18 234.73,182.76C231.77,181.34 228.64,180.62 225.35,180.62C222.83,180.62 220.5,181.11 218.36,182.1C216.22,183.09 215.15,184.79 215.15,187.2C215.15,189.61 216.33,191.15 218.69,192.14C221.05,193.13 224.86,194.22 230.12,195.43C233.19,196.09 236.29,197.02 239.41,198.23C242.54,199.44 245.36,201.03 247.88,203C250.4,204.97 252.43,207.39 253.97,210.24C255.5,213.09 256.27,216.49 256.27,220.44C256.27,225.6 255.23,229.96 253.15,233.52C251.07,237.08 248.35,239.96 245.01,242.16C241.66,244.35 237.91,245.94 233.74,246.93C229.57,247.92 225.41,248.41 221.24,248.41C214.55,248.41 208,247.34 201.58,245.2C195.16,243.06 189.82,239.91 185.54,235.74L200.67,219.78C203.08,222.41 206.04,224.61 209.55,226.36C213.06,228.12 216.79,228.99 220.74,228.99C222.93,228.99 225.1,228.47 227.24,227.43C229.38,226.39 230.45,224.55 230.45,221.92C230.45,219.29 229.13,217.54 226.5,216.33C223.87,215.12 219.76,213.86 214.16,212.55C211.31,211.89 208.46,211.02 205.61,209.92C202.76,208.83 200.21,207.34 197.96,205.48C195.71,203.62 193.87,201.31 192.45,198.57C191.02,195.83 190.31,192.54 190.31,188.7C190.31,183.77 191.35,179.57 193.44,176.12C195.52,172.67 198.21,169.84 201.5,167.65C204.79,165.46 208.43,163.84 212.44,162.8C216.44,161.76 220.42,161.24 224.37,161.24C230.51,161.24 236.51,162.2 242.38,164.12C248.25,166.04 253.21,168.92 257.27,172.76L242.47,188.06L242.46,188.02Z" style="fill:rgb(0,142,143);fill-rule:nonzero;"/>
    </g>
    <g transform="matrix(1,0,0,1,0.371076,-48.1212)">
        <path d="M318.12,258.09C316.48,262.37 314.64,266.18 312.61,269.52C310.58,272.86 308.17,275.71 305.37,278.07C302.57,280.43 299.28,282.21 295.5,283.42C291.72,284.63 287.25,285.23 282.09,285.23C279.57,285.23 276.96,285.07 274.28,284.74C271.59,284.41 269.26,283.97 267.29,283.42L270.25,260.72C271.57,261.16 273.02,261.51 274.61,261.79C276.2,262.06 277.65,262.2 278.97,262.2C283.14,262.2 286.15,261.24 288.02,259.32C289.88,257.4 291.48,254.69 292.79,251.18L295.42,244.44L261.21,163.84L291.15,163.84L309.41,216.48L309.9,216.48L326.19,163.84L354.81,163.84L318.13,258.09L318.12,258.09Z" style="fill:rgb(0,142,143);fill-rule:nonzero;"/>
    </g>
    <g transform="matrix(1,0,0,1,0.371076,-48.1212)">
        <path d="M445.28,214.67C445.28,220.92 444.1,226.05 441.74,230.05C439.38,234.05 436.37,237.21 432.69,239.51C429.02,241.81 424.96,243.43 420.52,244.36C416.08,245.29 411.83,245.76 407.77,245.76L372.08,245.76L372.08,129.3L403.83,129.3C408.21,129.3 412.57,129.74 416.91,130.62C421.24,131.5 425.11,132.98 428.51,135.06C431.91,137.14 434.65,139.94 436.73,143.45C438.81,146.96 439.85,151.4 439.85,156.77C439.85,160.94 439.19,164.56 437.88,167.63C436.56,170.7 434.78,173.33 432.53,175.53C430.28,177.72 427.73,179.51 424.88,180.88C422.03,182.25 419.12,183.27 416.16,183.92L416.16,184.25C419.12,184.58 422.3,185.38 425.7,186.64C429.1,187.9 432.25,189.74 435.16,192.15C438.06,194.56 440.48,197.63 442.4,201.36C444.32,205.09 445.28,209.53 445.28,214.68L445.28,214.67ZM436.23,157.26C436.23,152.55 435.3,148.6 433.43,145.42C431.56,142.24 429.1,139.72 426.03,137.85C422.96,135.99 419.42,134.64 415.42,133.82C411.42,133 407.22,132.59 402.84,132.59L375.7,132.59L375.7,182.76L403.66,182.76C407.61,182.76 411.53,182.27 415.42,181.28C419.31,180.29 422.79,178.79 425.87,176.76C428.94,174.73 431.43,172.1 433.35,168.86C435.27,165.63 436.23,161.76 436.23,157.26ZM441.66,215.16C441.66,209.9 440.59,205.4 438.45,201.67C436.31,197.94 433.6,194.93 430.31,192.62C427.02,190.32 423.4,188.65 419.45,187.6C415.5,186.56 411.66,186.04 407.94,186.04L375.7,186.04L375.7,242.46L406.13,242.46C411.17,242.46 415.89,241.94 420.28,240.9C424.66,239.86 428.42,238.24 431.55,236.05C434.67,233.86 437.14,231.03 438.95,227.58C440.76,224.13 441.66,219.99 441.66,215.16Z" style="fill:rgb(0,142,143);fill-rule:nonzero;"/>
    </g>
    <g transform="matrix(1,0,0,1,0.371076,-48.1212)">
        <path d="M524.07,228.65C524.07,231.5 524.21,234.55 524.48,237.78C524.75,241.02 525.06,243.68 525.39,245.76L521.93,245.76C521.71,244.67 521.55,243.32 521.44,241.73C521.33,240.14 521.19,238.5 521.03,236.8C520.87,235.1 520.75,233.43 520.7,231.78C520.64,230.13 520.62,228.77 520.62,227.67L520.13,227.67C517.93,234.58 514.15,239.71 508.78,243.05C503.41,246.39 497.65,248.07 491.51,248.07C488.44,248.07 485.4,247.63 482.38,246.75C479.36,245.87 476.65,244.56 474.24,242.8C471.83,241.05 469.88,238.8 468.4,236.06C466.92,233.32 466.18,230.08 466.18,226.35C466.18,220.98 467.58,216.64 470.37,213.35C473.17,210.06 476.65,207.51 480.82,205.7C484.99,203.89 489.46,202.71 494.23,202.16C499,201.61 503.36,201.34 507.31,201.34L520.47,201.34L520.47,195.25C520.47,186.81 518.22,180.64 513.73,176.74C509.23,172.85 503.37,170.9 496.13,170.9C491.63,170.9 487.44,171.72 483.55,173.37C479.66,175.02 476.17,177.21 473.1,179.95L471.13,177.15C474.64,174.08 478.61,171.75 483.06,170.16C487.5,168.57 491.86,167.77 496.14,167.77C504.8,167.77 511.63,169.99 516.62,174.43C521.61,178.87 524.1,185.86 524.1,195.4L524.1,228.63L524.07,228.65ZM520.45,204.47L508.77,204.47C504.6,204.47 500.22,204.72 495.61,205.21C491,205.7 486.78,206.72 482.94,208.25C479.1,209.79 475.95,211.98 473.48,214.83C471.01,217.68 469.78,221.52 469.78,226.34C469.78,229.85 470.46,232.78 471.84,235.14C473.21,237.5 474.97,239.39 477.1,240.82C479.24,242.25 481.6,243.29 484.17,243.94C486.75,244.6 489.19,244.93 491.49,244.93C497.08,244.93 501.74,243.89 505.47,241.8C509.2,239.72 512.19,237.06 514.43,233.82C516.68,230.59 518.24,227.02 519.12,223.13C520,219.24 520.44,215.43 520.44,211.7L520.44,204.46L520.45,204.47Z" style="fill:rgb(0,142,143);fill-rule:nonzero;"/>
    </g>
    <g transform="matrix(1,0,0,1,0.371076,-48.1212)">
        <path d="M565.35,180.62C567.43,177.88 569.79,175.55 572.42,173.63C575.05,171.71 577.9,170.26 580.97,169.27C584.04,168.28 587.22,167.79 590.51,167.79C595.77,167.79 600.16,168.72 603.67,170.59C607.18,172.46 609.97,174.92 612.06,177.99C614.14,181.06 615.62,184.52 616.5,188.35C617.38,192.19 617.82,196.08 617.82,200.03L617.82,245.76L614.2,245.76L614.2,200.36C614.2,197.29 613.87,194 613.21,190.49C612.55,186.98 611.32,183.8 609.51,180.95C607.7,178.1 605.26,175.71 602.19,173.79C599.12,171.87 595.22,170.91 590.51,170.91C586.34,170.91 582.42,171.76 578.75,173.46C575.08,175.16 571.9,177.6 569.21,180.78C566.52,183.96 564.38,187.83 562.79,192.38C561.2,196.93 560.41,202.11 560.41,207.92L560.41,245.75L556.79,245.75L556.79,189.16C556.79,187.95 556.76,186.47 556.71,184.72C556.65,182.97 556.6,181.18 556.55,179.37C556.49,177.56 556.41,175.83 556.3,174.19C556.19,172.54 556.08,171.17 555.97,170.08L559.59,170.08C559.7,171.18 559.78,172.55 559.84,174.19C559.89,175.83 559.95,177.62 560.01,179.54C560.06,181.46 560.12,183.32 560.17,185.13C560.22,186.94 560.25,188.56 560.25,189.98L560.58,189.98C561.68,186.47 563.27,183.35 565.35,180.6L565.35,180.62Z" style="fill:rgb(0,142,143);fill-rule:nonzero;"/>
    </g>
    <g transform="matrix(1,0,0,1,0.371076,-48.1212)">
        <path d="M654.18,204.96L693.33,170.09L698.43,170.09L658.46,205.13L703.04,245.76L697.61,245.76L654.18,205.79L654.02,205.79L654.02,245.76L650.4,245.76L650.4,121.4L654.02,121.4L654.02,204.96L654.18,204.96Z" style="fill:rgb(0,142,143);fill-rule:nonzero;"/>
    </g>
</svg>
