<?xml version="1.0" encoding="UTF-8"?><svg id="Warstwa_1" xmlns="http://www.w3.org/2000/svg" viewBox="0 0 703.03 285.24"><path d="m85.37,205.79v3.29c0,1.1-.06,2.14-.16,3.13H25.83c.22,2.3.9,4.39,2.06,6.25,1.15,1.87,2.63,3.48,4.44,4.85,1.81,1.37,3.84,2.44,6.09,3.21,2.25.77,4.58,1.15,6.99,1.15,4.28,0,7.9-.79,10.86-2.39,2.96-1.59,5.37-3.64,7.24-6.17l18.75,11.84c-3.84,5.59-8.91,9.9-15.22,12.91-6.31,3.01-13.63,4.52-21.96,4.52-6.14,0-11.95-.96-17.44-2.88-5.48-1.92-10.28-4.71-14.39-8.39-4.11-3.67-7.35-8.2-9.71-13.57-2.36-5.37-3.54-11.51-3.54-18.42s1.15-12.75,3.45-18.18,5.43-10.03,9.38-13.82,8.61-6.72,13.98-8.8c5.37-2.08,11.19-3.13,17.44-3.13s11.57,1.02,16.61,3.04c5.04,2.03,9.38,4.96,13,8.8,3.62,3.84,6.44,8.5,8.47,13.98,2.03,5.48,3.04,11.74,3.04,18.75Zm-24.84-10.36c0-4.28-1.34-7.95-4.03-11.02-2.69-3.07-6.72-4.61-12.09-4.61-2.63,0-5.04.41-7.24,1.23-2.2.82-4.11,1.95-5.76,3.37-1.65,1.43-2.96,3.1-3.95,5.02-.99,1.92-1.54,3.92-1.65,6h34.71Z" fill="#008e8f"/><path d="m100.01,175.03c4.82-4.61,10.45-8.06,16.86-10.36,6.42-2.3,12.97-3.45,19.66-3.45s12.75.85,17.52,2.55c4.77,1.7,8.64,4.33,11.6,7.9,2.96,3.56,5.12,8.06,6.5,13.49,1.37,5.43,2.06,11.87,2.06,19.33v41.29h-24.67v-8.72h-.49c-2.08,3.4-5.24,6.03-9.46,7.9-4.22,1.86-8.8,2.8-13.73,2.8-3.29,0-6.69-.44-10.2-1.32-3.51-.88-6.72-2.3-9.62-4.28-2.91-1.97-5.29-4.61-7.16-7.9-1.87-3.29-2.8-7.35-2.8-12.17,0-5.92,1.62-10.69,4.85-14.31,3.23-3.62,7.4-6.42,12.5-8.39,5.1-1.97,10.77-3.29,17.02-3.95,6.25-.66,12.34-.99,18.26-.99v-1.32c0-4.06-1.43-7.04-4.28-8.96-2.85-1.92-6.36-2.88-10.53-2.88-3.84,0-7.54.82-11.1,2.47-3.56,1.65-6.61,3.62-9.13,5.92l-13.65-14.64Zm49.51,35.04h-3.45c-2.96,0-5.95.14-8.96.41-3.02.27-5.7.8-8.06,1.56-2.36.77-4.31,1.89-5.84,3.37-1.54,1.48-2.3,3.43-2.3,5.84,0,1.54.35,2.85,1.07,3.95.71,1.1,1.62,1.97,2.71,2.63,1.1.66,2.36,1.13,3.78,1.4,1.42.28,2.8.41,4.11.41,5.48,0,9.68-1.51,12.58-4.52,2.9-3.01,4.36-7.1,4.36-12.25v-2.8Z" fill="#008e8f"/><path d="m242.46,188.02c-2.19-2.08-4.77-3.84-7.73-5.26-2.96-1.42-6.09-2.14-9.38-2.14-2.52,0-4.85.49-6.99,1.48-2.14.99-3.21,2.69-3.21,5.1s1.18,3.95,3.54,4.94c2.36.99,6.17,2.08,11.43,3.29,3.07.66,6.17,1.59,9.29,2.8,3.13,1.21,5.95,2.8,8.47,4.77,2.52,1.97,4.55,4.39,6.09,7.24,1.53,2.85,2.3,6.25,2.3,10.2,0,5.16-1.04,9.52-3.12,13.08-2.08,3.56-4.8,6.44-8.14,8.64-3.35,2.19-7.1,3.78-11.27,4.77-4.17.99-8.33,1.48-12.5,1.48-6.69,0-13.24-1.07-19.66-3.21-6.42-2.14-11.76-5.29-16.04-9.46l15.13-15.96c2.41,2.63,5.37,4.83,8.88,6.58,3.51,1.76,7.24,2.63,11.19,2.63,2.19,0,4.36-.52,6.5-1.56,2.14-1.04,3.21-2.88,3.21-5.51s-1.32-4.38-3.95-5.59c-2.63-1.21-6.74-2.47-12.34-3.78-2.85-.66-5.7-1.53-8.55-2.63-2.85-1.09-5.4-2.58-7.65-4.44-2.25-1.86-4.09-4.17-5.51-6.91-1.43-2.74-2.14-6.03-2.14-9.87,0-4.93,1.04-9.13,3.13-12.58,2.08-3.45,4.77-6.28,8.06-8.47,3.29-2.19,6.93-3.81,10.94-4.85,4-1.04,7.98-1.56,11.93-1.56,6.14,0,12.14.96,18.01,2.88,5.87,1.92,10.83,4.8,14.89,8.64l-14.8,15.3Z" fill="#008e8f"/><path d="m318.12,258.09c-1.64,4.28-3.48,8.09-5.51,11.43-2.03,3.34-4.44,6.19-7.24,8.55-2.8,2.36-6.09,4.14-9.87,5.35-3.78,1.21-8.25,1.81-13.41,1.81-2.52,0-5.13-.16-7.81-.49-2.69-.33-5.02-.77-6.99-1.32l2.96-22.7c1.32.44,2.77.79,4.36,1.07,1.59.27,3.04.41,4.36.41,4.17,0,7.18-.96,9.05-2.88,1.86-1.92,3.46-4.63,4.77-8.14l2.63-6.74-34.21-80.6h29.94l18.26,52.64h.49l16.29-52.64h28.62l-36.68,94.25Z" fill="#008e8f"/><path d="m445.28,214.67c0,6.25-1.18,11.38-3.54,15.38-2.36,4-5.37,7.16-9.05,9.46-3.67,2.3-7.73,3.92-12.17,4.85-4.44.93-8.69,1.4-12.75,1.4h-35.69v-116.46h31.75c4.38,0,8.74.44,13.08,1.32,4.33.88,8.2,2.36,11.6,4.44,3.4,2.08,6.14,4.88,8.22,8.39,2.08,3.51,3.12,7.95,3.12,13.32,0,4.17-.66,7.79-1.97,10.86-1.32,3.07-3.1,5.7-5.35,7.9-2.25,2.19-4.8,3.98-7.65,5.35-2.85,1.37-5.76,2.39-8.72,3.04v.33c2.96.33,6.14,1.13,9.54,2.39,3.4,1.26,6.55,3.1,9.46,5.51,2.9,2.41,5.32,5.48,7.24,9.21,1.92,3.73,2.88,8.17,2.88,13.32Zm-9.05-57.41c0-4.71-.93-8.66-2.8-11.84-1.87-3.18-4.33-5.7-7.4-7.57-3.07-1.86-6.61-3.21-10.61-4.03-4-.82-8.2-1.23-12.58-1.23h-27.14v50.17h27.96c3.95,0,7.87-.49,11.76-1.48,3.89-.99,7.37-2.49,10.45-4.52,3.07-2.03,5.56-4.66,7.48-7.9,1.92-3.23,2.88-7.1,2.88-11.6Zm5.43,57.9c0-5.26-1.07-9.76-3.21-13.49-2.14-3.73-4.85-6.74-8.14-9.05-3.29-2.3-6.91-3.97-10.86-5.02-3.95-1.04-7.79-1.56-11.51-1.56h-32.24v56.42h30.43c5.04,0,9.76-.52,14.15-1.56,4.38-1.04,8.14-2.66,11.27-4.85,3.12-2.19,5.59-5.02,7.4-8.47,1.81-3.45,2.71-7.59,2.71-12.42Z" fill="#008e8f"/><path d="m524.07,228.65c0,2.85.14,5.9.41,9.13.27,3.24.58,5.9.91,7.98h-3.46c-.22-1.09-.38-2.44-.49-4.03-.11-1.59-.25-3.23-.41-4.93-.16-1.7-.28-3.37-.33-5.02-.06-1.65-.08-3.01-.08-4.11h-.49c-2.2,6.91-5.98,12.04-11.35,15.38-5.37,3.34-11.13,5.02-17.27,5.02-3.07,0-6.11-.44-9.13-1.32-3.02-.88-5.73-2.19-8.14-3.95-2.41-1.75-4.36-4-5.84-6.74-1.48-2.74-2.22-5.98-2.22-9.71,0-5.37,1.4-9.71,4.19-13,2.8-3.29,6.28-5.84,10.45-7.65,4.17-1.81,8.64-2.99,13.41-3.54,4.77-.55,9.13-.82,13.08-.82h13.16v-6.09c0-8.44-2.25-14.61-6.74-18.51-4.5-3.89-10.36-5.84-17.6-5.84-4.5,0-8.69.82-12.58,2.47-3.89,1.65-7.38,3.84-10.45,6.58l-1.97-2.8c3.51-3.07,7.48-5.4,11.93-6.99,4.44-1.59,8.8-2.39,13.08-2.39,8.66,0,15.49,2.22,20.48,6.66,4.99,4.44,7.48,11.43,7.48,20.97v33.23Zm-3.62-24.18h-11.68c-4.17,0-8.55.25-13.16.74-4.61.49-8.83,1.51-12.67,3.04-3.84,1.54-6.99,3.73-9.46,6.58-2.47,2.85-3.7,6.69-3.7,11.51,0,3.51.68,6.44,2.06,8.8,1.37,2.36,3.13,4.25,5.26,5.68,2.14,1.43,4.5,2.47,7.07,3.12,2.58.66,5.02.99,7.32.99,5.59,0,10.25-1.04,13.98-3.13,3.73-2.08,6.72-4.74,8.96-7.98,2.25-3.23,3.81-6.8,4.69-10.69.88-3.89,1.32-7.7,1.32-11.43v-7.24Z" fill="#008e8f"/><path d="m565.35,180.62c2.08-2.74,4.44-5.07,7.07-6.99,2.63-1.92,5.48-3.37,8.55-4.36,3.07-.99,6.25-1.48,9.54-1.48,5.26,0,9.65.93,13.16,2.8,3.51,1.87,6.3,4.33,8.39,7.4,2.08,3.07,3.56,6.53,4.44,10.36.88,3.84,1.32,7.73,1.32,11.68v45.73h-3.62v-45.4c0-3.07-.33-6.36-.99-9.87-.66-3.51-1.89-6.69-3.7-9.54-1.81-2.85-4.25-5.24-7.32-7.16-3.07-1.92-6.97-2.88-11.68-2.88-4.17,0-8.09.85-11.76,2.55-3.67,1.7-6.85,4.14-9.54,7.32-2.69,3.18-4.83,7.05-6.42,11.6-1.59,4.55-2.38,9.73-2.38,15.54v37.83h-3.62v-56.59c0-1.21-.03-2.69-.08-4.44-.06-1.75-.11-3.54-.16-5.35-.06-1.81-.14-3.54-.25-5.18-.11-1.65-.22-3.02-.33-4.11h3.62c.11,1.1.19,2.47.25,4.11.05,1.64.11,3.43.17,5.35.05,1.92.11,3.78.16,5.59.05,1.81.08,3.43.08,4.85h.33c1.1-3.51,2.69-6.63,4.77-9.38Z" fill="#008e8f"/><path d="m654.18,204.96l39.15-34.87h5.1l-39.97,35.04,44.58,40.63h-5.43l-43.43-39.97h-.16v39.97h-3.62v-124.36h3.62v83.56h.16Z" fill="#008e8f"/><path d="m129.25,39.78v1.55c0,.52-.03,1.01-.08,1.47h-27.99c.1,1.09.43,2.07.97,2.95.54.88,1.24,1.64,2.09,2.29.85.65,1.81,1.15,2.87,1.51,1.06.36,2.16.54,3.3.54,2.02,0,3.72-.37,5.12-1.12,1.4-.75,2.53-1.72,3.41-2.91l8.84,5.58c-1.81,2.64-4.2,4.67-7.17,6.09-2.97,1.42-6.42,2.13-10.35,2.13-2.9,0-5.64-.45-8.22-1.36-2.59-.9-4.85-2.22-6.79-3.95-1.94-1.73-3.46-3.86-4.58-6.4-1.11-2.53-1.67-5.43-1.67-8.69s.54-6.01,1.63-8.57,2.56-4.73,4.42-6.51,4.06-3.17,6.59-4.15c2.53-.98,5.27-1.47,8.22-1.47s5.45.48,7.83,1.43c2.38.96,4.42,2.34,6.13,4.15,1.71,1.81,3.04,4.01,3.99,6.59.96,2.59,1.43,5.53,1.43,8.84Zm-11.71-4.89c0-2.02-.63-3.75-1.9-5.2-1.27-1.45-3.17-2.17-5.7-2.17-1.24,0-2.38.19-3.41.58-1.03.39-1.94.92-2.71,1.59-.78.67-1.4,1.46-1.86,2.37-.47.91-.72,1.85-.78,2.83h16.36Z" fill="#fff"/><path d="m136.15,25.28c2.27-2.17,4.92-3.8,7.95-4.89,3.02-1.09,6.11-1.63,9.27-1.63s6.01.4,8.26,1.2c2.25.8,4.07,2.04,5.47,3.72,1.4,1.68,2.42,3.8,3.06,6.36.65,2.56.97,5.6.97,9.11v19.46h-11.63v-4.11h-.23c-.98,1.6-2.47,2.84-4.46,3.72-1.99.88-4.15,1.32-6.47,1.32-1.55,0-3.15-.21-4.81-.62-1.66-.41-3.17-1.09-4.54-2.02-1.37-.93-2.49-2.17-3.37-3.72-.88-1.55-1.32-3.46-1.32-5.74,0-2.79.76-5.04,2.29-6.75,1.52-1.71,3.49-3.02,5.89-3.95,2.4-.93,5.08-1.55,8.03-1.86,2.95-.31,5.82-.47,8.61-.47v-.62c0-1.91-.67-3.32-2.02-4.23-1.34-.9-3-1.36-4.96-1.36-1.81,0-3.56.39-5.23,1.16-1.68.78-3.12,1.71-4.3,2.79l-6.44-6.9Zm23.34,16.52h-1.63c-1.4,0-2.81.07-4.23.19-1.42.13-2.69.38-3.8.74-1.11.36-2.03.89-2.75,1.59-.72.7-1.09,1.62-1.09,2.75,0,.72.17,1.34.5,1.86.34.52.76.93,1.28,1.24.52.31,1.11.53,1.78.66.67.13,1.32.19,1.94.19,2.58,0,4.56-.71,5.93-2.13,1.37-1.42,2.06-3.35,2.06-5.78v-1.32Z" fill="#fff"/><path d="m203.3,31.41c-1.03-.98-2.25-1.81-3.64-2.48-1.4-.67-2.87-1.01-4.42-1.01-1.19,0-2.29.23-3.3.7-1.01.47-1.51,1.27-1.51,2.4s.55,1.86,1.67,2.33c1.11.47,2.91.98,5.39,1.55,1.45.31,2.91.75,4.38,1.32,1.47.57,2.8,1.32,3.99,2.25,1.19.93,2.14,2.07,2.87,3.41.72,1.34,1.09,2.95,1.09,4.81,0,2.43-.49,4.49-1.47,6.16-.98,1.68-2.26,3.04-3.84,4.07-1.58,1.03-3.35,1.78-5.31,2.25-1.97.47-3.93.7-5.89.7-3.15,0-6.24-.5-9.27-1.51-3.02-1.01-5.54-2.49-7.56-4.46l7.13-7.52c1.14,1.24,2.53,2.28,4.19,3.1,1.65.83,3.41,1.24,5.27,1.24,1.03,0,2.06-.24,3.06-.74,1.01-.49,1.51-1.36,1.51-2.6s-.62-2.07-1.86-2.64c-1.24-.57-3.18-1.16-5.82-1.78-1.34-.31-2.69-.72-4.03-1.24-1.34-.52-2.55-1.21-3.61-2.09-1.06-.88-1.93-1.96-2.6-3.26-.67-1.29-1.01-2.84-1.01-4.65,0-2.33.49-4.3,1.47-5.93.98-1.63,2.25-2.96,3.8-3.99,1.55-1.03,3.27-1.8,5.16-2.29,1.89-.49,3.76-.74,5.62-.74,2.89,0,5.72.45,8.49,1.36,2.77.91,5.1,2.26,7.02,4.07l-6.98,7.21Z" fill="#fff"/><path d="m238.97,64.44c-.78,2.02-1.64,3.81-2.6,5.39-.96,1.58-2.09,2.92-3.41,4.03-1.32,1.11-2.87,1.95-4.65,2.52-1.78.57-3.89.85-6.32.85-1.19,0-2.42-.08-3.68-.23-1.27-.16-2.37-.36-3.3-.62l1.4-10.7c.62.21,1.3.37,2.05.5.75.13,1.43.19,2.06.19,1.96,0,3.39-.45,4.26-1.36.88-.91,1.63-2.18,2.25-3.84l1.24-3.18-16.13-38h14.11l8.61,24.81h.23l7.68-24.81h13.49l-17.29,44.43Z" fill="#fff"/><path d="m298.92,43.97c0,2.95-.56,5.36-1.67,7.25-1.11,1.89-2.53,3.37-4.26,4.46-1.73,1.09-3.64,1.85-5.74,2.29-2.09.44-4.1.66-6.01.66h-16.83V3.72h14.97c2.07,0,4.12.21,6.16.62,2.04.41,3.86,1.11,5.47,2.09,1.6.98,2.89,2.3,3.88,3.95.98,1.66,1.47,3.75,1.47,6.28,0,1.97-.31,3.67-.93,5.12-.62,1.45-1.46,2.69-2.52,3.72-1.06,1.03-2.26,1.87-3.61,2.52-1.34.65-2.71,1.12-4.11,1.43v.15c1.4.16,2.89.53,4.5,1.12,1.6.6,3.09,1.46,4.46,2.6,1.37,1.14,2.51,2.59,3.41,4.34.9,1.76,1.36,3.85,1.36,6.28Zm-4.26-27.06c0-2.22-.44-4.08-1.32-5.58-.88-1.5-2.04-2.69-3.49-3.57-1.45-.88-3.11-1.51-5-1.9-1.89-.39-3.87-.58-5.93-.58h-12.8v23.65h13.18c1.86,0,3.71-.23,5.54-.7,1.83-.47,3.48-1.18,4.92-2.13,1.45-.96,2.62-2.2,3.53-3.72.9-1.52,1.36-3.35,1.36-5.47Zm2.56,27.3c0-2.48-.5-4.6-1.51-6.36-1.01-1.76-2.29-3.18-3.84-4.27-1.55-1.09-3.26-1.87-5.12-2.37-1.86-.49-3.67-.74-5.43-.74h-15.2v26.6h14.35c2.38,0,4.6-.24,6.67-.74,2.07-.49,3.84-1.25,5.31-2.29,1.47-1.03,2.64-2.37,3.49-3.99.85-1.63,1.28-3.58,1.28-5.85Z" fill="#fff"/><path d="m336.06,50.56c0,1.34.06,2.78.19,4.3.13,1.53.27,2.78.43,3.76h-1.63c-.1-.52-.18-1.15-.23-1.9-.05-.75-.12-1.52-.19-2.33-.08-.8-.13-1.59-.16-2.37-.03-.78-.04-1.42-.04-1.94h-.23c-1.03,3.26-2.82,5.67-5.35,7.25-2.53,1.58-5.25,2.37-8.14,2.37-1.45,0-2.88-.21-4.3-.62-1.42-.41-2.7-1.03-3.84-1.86-1.14-.83-2.06-1.89-2.75-3.18-.7-1.29-1.05-2.82-1.05-4.58,0-2.53.66-4.58,1.98-6.13,1.32-1.55,2.96-2.75,4.92-3.61,1.96-.85,4.07-1.41,6.32-1.67,2.25-.26,4.3-.39,6.16-.39h6.2v-2.87c0-3.98-1.06-6.89-3.18-8.72-2.12-1.83-4.89-2.75-8.3-2.75-2.12,0-4.1.39-5.93,1.16-1.84.78-3.48,1.81-4.92,3.1l-.93-1.32c1.65-1.45,3.53-2.55,5.62-3.3,2.09-.75,4.15-1.12,6.16-1.12,4.08,0,7.3,1.05,9.65,3.14,2.35,2.09,3.53,5.39,3.53,9.89v15.66Zm-1.71-11.4h-5.51c-1.97,0-4.03.12-6.2.35-2.17.23-4.16.71-5.97,1.43-1.81.72-3.3,1.76-4.46,3.1-1.16,1.34-1.74,3.15-1.74,5.43,0,1.66.32,3.04.97,4.15.65,1.11,1.47,2,2.48,2.68,1.01.67,2.12,1.16,3.33,1.47,1.21.31,2.37.47,3.45.47,2.64,0,4.83-.49,6.59-1.47,1.76-.98,3.17-2.24,4.23-3.76,1.06-1.52,1.8-3.2,2.21-5.04.41-1.83.62-3.63.62-5.39v-3.41Z" fill="#fff"/><path d="m355.52,27.92c.98-1.29,2.09-2.39,3.33-3.3,1.24-.9,2.58-1.59,4.03-2.06,1.45-.47,2.95-.7,4.5-.7,2.48,0,4.55.44,6.2,1.32,1.65.88,2.97,2.04,3.95,3.49.98,1.45,1.68,3.08,2.09,4.89.41,1.81.62,3.64.62,5.51v21.56h-1.71v-21.4c0-1.45-.16-3-.47-4.65-.31-1.65-.89-3.15-1.74-4.5-.85-1.34-2-2.47-3.45-3.37-1.45-.9-3.28-1.36-5.51-1.36-1.97,0-3.81.4-5.54,1.2-1.73.8-3.23,1.95-4.5,3.45-1.27,1.5-2.28,3.32-3.02,5.47-.75,2.15-1.12,4.59-1.12,7.33v17.84h-1.71v-26.68c0-.57-.01-1.27-.04-2.09-.03-.83-.05-1.67-.08-2.52-.03-.85-.07-1.67-.12-2.44-.05-.78-.1-1.42-.16-1.94h1.71c.05.52.09,1.16.12,1.94.03.78.05,1.62.08,2.52.03.91.05,1.78.08,2.64.03.85.04,1.62.04,2.29h.15c.52-1.65,1.27-3.13,2.25-4.42Z" fill="#fff"/><path d="m397.4,39.39l18.46-16.44h2.4l-18.84,16.52,21.01,19.15h-2.56l-20.47-18.84h-.08v18.84h-1.71V0h1.71v39.39h.08Z" fill="#fff"/></svg>