<?xml version="1.0" encoding="UTF-8" standalone="no"?>
<!DOCTYPE svg PUBLIC "-//W3C//DTD SVG 1.1//EN" "http://www.w3.org/Graphics/SVG/1.1/DTD/svg11.dtd">
<svg width="100%" height="100%" viewBox="0 0 704 286" version="1.1" xmlns="http://www.w3.org/2000/svg" xmlns:xlink="http://www.w3.org/1999/xlink" xml:space="preserve" xmlns:serif="http://www.serif.com/" style="fill-rule:evenodd;clip-rule:evenodd;stroke-linejoin:round;stroke-miterlimit:2;">
    <g transform="matrix(1.90906,0,0,1.90906,-133.366,75.9559)">
        <path d="M129.25,39.78L129.25,41.33C129.25,41.85 129.22,42.34 129.17,42.8L101.18,42.8C101.28,43.89 101.61,44.87 102.15,45.75C102.69,46.63 103.39,47.39 104.24,48.04C105.09,48.69 106.05,49.19 107.11,49.55C108.17,49.91 109.27,50.09 110.41,50.09C112.43,50.09 114.13,49.72 115.53,48.97C116.93,48.22 118.06,47.25 118.94,46.06L127.78,51.64C125.97,54.28 123.58,56.31 120.61,57.73C117.64,59.15 114.19,59.86 110.26,59.86C107.36,59.86 104.62,59.41 102.04,58.5C99.45,57.6 97.19,56.28 95.25,54.55C93.31,52.82 91.79,50.69 90.67,48.15C89.56,45.62 89,42.72 89,39.46C89,36.2 89.54,33.45 90.63,30.89C91.72,28.33 93.19,26.16 95.05,24.38C96.91,22.6 99.11,21.21 101.64,20.23C104.17,19.25 106.91,18.76 109.86,18.76C112.81,18.76 115.31,19.24 117.69,20.19C120.07,21.15 122.11,22.53 123.82,24.34C125.53,26.15 126.86,28.35 127.81,30.93C128.77,33.52 129.24,36.46 129.24,39.77L129.25,39.78ZM117.54,34.89C117.54,32.87 116.91,31.14 115.64,29.69C114.37,28.24 112.47,27.52 109.94,27.52C108.7,27.52 107.56,27.71 106.53,28.1C105.5,28.49 104.59,29.02 103.82,29.69C103.04,30.36 102.42,31.15 101.96,32.06C101.49,32.97 101.24,33.91 101.18,34.89L117.54,34.89Z" style="fill:white;fill-rule:nonzero;"/>
    </g>
    <g transform="matrix(1.90906,0,0,1.90906,-133.366,75.9559)">
        <path d="M136.15,25.28C138.42,23.11 141.07,21.48 144.1,20.39C147.12,19.3 150.21,18.76 153.37,18.76C156.53,18.76 159.38,19.16 161.63,19.96C163.88,20.76 165.7,22 167.1,23.68C168.5,25.36 169.52,27.48 170.16,30.04C170.81,32.6 171.13,35.64 171.13,39.15L171.13,58.61L159.5,58.61L159.5,54.5L159.27,54.5C158.29,56.1 156.8,57.34 154.81,58.22C152.82,59.1 150.66,59.54 148.34,59.54C146.79,59.54 145.19,59.33 143.53,58.92C141.87,58.51 140.36,57.83 138.99,56.9C137.62,55.97 136.5,54.73 135.62,53.18C134.74,51.63 134.3,49.72 134.3,47.44C134.3,44.65 135.06,42.4 136.59,40.69C138.11,38.98 140.08,37.67 142.48,36.74C144.88,35.81 147.56,35.19 150.51,34.88C153.46,34.57 156.33,34.41 159.12,34.41L159.12,33.79C159.12,31.88 158.45,30.47 157.1,29.56C155.76,28.66 154.1,28.2 152.14,28.2C150.33,28.2 148.58,28.59 146.91,29.36C145.23,30.14 143.79,31.07 142.61,32.15L136.17,25.25L136.15,25.28ZM159.49,41.8L157.86,41.8C156.46,41.8 155.05,41.87 153.63,41.99C152.21,42.12 150.94,42.37 149.83,42.73C148.72,43.09 147.8,43.62 147.08,44.32C146.36,45.02 145.99,45.94 145.99,47.07C145.99,47.79 146.16,48.41 146.49,48.93C146.83,49.45 147.25,49.86 147.77,50.17C148.29,50.48 148.88,50.7 149.55,50.83C150.22,50.96 150.87,51.02 151.49,51.02C154.07,51.02 156.05,50.31 157.42,48.89C158.79,47.47 159.48,45.54 159.48,43.11L159.48,41.79L159.49,41.8Z" style="fill:white;fill-rule:nonzero;"/>
    </g>
    <g transform="matrix(1.90906,0,0,1.90906,-133.366,75.9559)">
        <path d="M203.3,31.41C202.27,30.43 201.05,29.6 199.66,28.93C198.26,28.26 196.79,27.92 195.24,27.92C194.05,27.92 192.95,28.15 191.94,28.62C190.93,29.09 190.43,29.89 190.43,31.02C190.43,32.15 190.98,32.88 192.1,33.35C193.21,33.82 195.01,34.33 197.49,34.9C198.94,35.21 200.4,35.65 201.87,36.22C203.34,36.79 204.67,37.54 205.86,38.47C207.05,39.4 208,40.54 208.73,41.88C209.45,43.22 209.82,44.83 209.82,46.69C209.82,49.12 209.33,51.18 208.35,52.85C207.37,54.53 206.09,55.89 204.51,56.92C202.93,57.95 201.16,58.7 199.2,59.17C197.23,59.64 195.27,59.87 193.31,59.87C190.16,59.87 187.07,59.37 184.04,58.36C181.02,57.35 178.5,55.87 176.48,53.9L183.61,46.38C184.75,47.62 186.14,48.66 187.8,49.48C189.45,50.31 191.21,50.72 193.07,50.72C194.1,50.72 195.13,50.48 196.13,49.98C197.14,49.49 197.64,48.62 197.64,47.38C197.64,46.14 197.02,45.31 195.78,44.74C194.54,44.17 192.6,43.58 189.96,42.96C188.62,42.65 187.27,42.24 185.93,41.72C184.59,41.2 183.38,40.51 182.32,39.63C181.26,38.75 180.39,37.67 179.72,36.37C179.05,35.08 178.71,33.53 178.71,31.72C178.71,29.39 179.2,27.42 180.18,25.79C181.16,24.16 182.43,22.83 183.98,21.8C185.53,20.77 187.25,20 189.14,19.51C191.03,19.02 192.9,18.77 194.76,18.77C197.65,18.77 200.48,19.22 203.25,20.13C206.02,21.04 208.35,22.39 210.27,24.2L203.29,31.41L203.3,31.41Z" style="fill:white;fill-rule:nonzero;"/>
    </g>
    <g transform="matrix(1.90906,0,0,1.90906,-133.366,75.9559)">
        <path d="M238.97,64.44C238.19,66.46 237.33,68.25 236.37,69.83C235.41,71.41 234.28,72.75 232.96,73.86C231.64,74.97 230.09,75.81 228.31,76.38C226.53,76.95 224.42,77.23 221.99,77.23C220.8,77.23 219.57,77.15 218.31,77C217.04,76.84 215.94,76.64 215.01,76.38L216.41,65.68C217.03,65.89 217.71,66.05 218.46,66.18C219.21,66.31 219.89,66.37 220.52,66.37C222.48,66.37 223.91,65.92 224.78,65.01C225.66,64.1 226.41,62.83 227.03,61.17L228.27,57.99L212.14,19.99L226.25,19.99L234.86,44.8L235.09,44.8L242.77,19.99L256.26,19.99L238.97,64.42L238.97,64.44Z" style="fill:white;fill-rule:nonzero;"/>
    </g>
    <g transform="matrix(1.90906,0,0,1.90906,-133.366,75.9559)">
        <path d="M298.92,43.97C298.92,46.92 298.36,49.33 297.25,51.22C296.14,53.11 294.72,54.59 292.99,55.68C291.26,56.77 289.35,57.53 287.25,57.97C285.16,58.41 283.15,58.63 281.24,58.63L264.41,58.63L264.41,3.72L279.38,3.72C281.45,3.72 283.5,3.93 285.54,4.34C287.58,4.75 289.4,5.45 291.01,6.43C292.61,7.41 293.9,8.73 294.89,10.38C295.87,12.04 296.36,14.13 296.36,16.66C296.36,18.63 296.05,20.33 295.43,21.78C294.81,23.23 293.97,24.47 292.91,25.5C291.85,26.53 290.65,27.37 289.3,28.02C287.96,28.67 286.59,29.14 285.19,29.45L285.19,29.6C286.59,29.76 288.08,30.13 289.69,30.72C291.29,31.32 292.78,32.18 294.15,33.32C295.52,34.46 296.66,35.91 297.56,37.66C298.46,39.42 298.92,41.51 298.92,43.94L298.92,43.97ZM294.66,16.91C294.66,14.69 294.22,12.83 293.34,11.33C292.46,9.83 291.3,8.64 289.85,7.76C288.4,6.88 286.74,6.25 284.85,5.86C282.96,5.47 280.98,5.28 278.92,5.28L266.12,5.28L266.12,28.93L279.3,28.93C281.16,28.93 283.01,28.7 284.84,28.23C286.67,27.76 288.32,27.05 289.76,26.1C291.21,25.14 292.38,23.9 293.29,22.38C294.19,20.86 294.65,19.03 294.65,16.91L294.66,16.91ZM297.22,44.21C297.22,41.73 296.72,39.61 295.71,37.85C294.7,36.09 293.42,34.67 291.87,33.58C290.32,32.49 288.61,31.71 286.75,31.21C284.89,30.72 283.08,30.47 281.32,30.47L266.12,30.47L266.12,57.07L280.47,57.07C282.85,57.07 285.07,56.83 287.14,56.33C289.21,55.84 290.98,55.08 292.45,54.04C293.92,53.01 295.09,51.67 295.94,50.05C296.79,48.42 297.22,46.47 297.22,44.2L297.22,44.21Z" style="fill:white;fill-rule:nonzero;"/>
    </g>
    <g transform="matrix(1.90906,0,0,1.90906,-133.366,75.9559)">
        <path d="M336.06,50.56C336.06,51.9 336.12,53.34 336.25,54.86C336.38,56.39 336.52,57.64 336.68,58.62L335.05,58.62C334.95,58.1 334.87,57.47 334.82,56.72C334.77,55.97 334.7,55.2 334.63,54.39C334.55,53.59 334.5,52.8 334.47,52.02C334.44,51.24 334.43,50.6 334.43,50.08L334.2,50.08C333.17,53.34 331.38,55.75 328.85,57.33C326.32,58.91 323.6,59.7 320.71,59.7C319.26,59.7 317.83,59.49 316.41,59.08C314.99,58.67 313.71,58.05 312.57,57.22C311.43,56.39 310.51,55.33 309.82,54.04C309.12,52.75 308.77,51.22 308.77,49.46C308.77,46.93 309.43,44.88 310.75,43.33C312.07,41.78 313.71,40.58 315.67,39.72C317.63,38.87 319.74,38.31 321.99,38.05C324.24,37.79 326.29,37.66 328.15,37.66L334.35,37.66L334.35,34.79C334.35,30.81 333.29,27.9 331.17,26.07C329.05,24.24 326.28,23.32 322.87,23.32C320.75,23.32 318.77,23.71 316.94,24.48C315.1,25.26 313.46,26.29 312.02,27.58L311.09,26.26C312.74,24.81 314.62,23.71 316.71,22.96C318.8,22.21 320.86,21.84 322.87,21.84C326.95,21.84 330.17,22.89 332.52,24.98C334.87,27.07 336.05,30.37 336.05,34.87L336.05,50.53L336.06,50.56ZM334.35,39.16L328.84,39.16C326.87,39.16 324.81,39.28 322.64,39.51C320.47,39.74 318.48,40.22 316.67,40.94C314.86,41.66 313.37,42.7 312.21,44.04C311.05,45.38 310.47,47.19 310.47,49.47C310.47,51.13 310.79,52.51 311.44,53.62C312.09,54.73 312.91,55.62 313.92,56.3C314.93,56.97 316.04,57.46 317.25,57.77C318.46,58.08 319.62,58.24 320.7,58.24C323.34,58.24 325.53,57.75 327.29,56.77C329.05,55.79 330.46,54.53 331.52,53.01C332.58,51.49 333.32,49.81 333.73,47.97C334.14,46.14 334.35,44.34 334.35,42.58L334.35,39.16Z" style="fill:white;fill-rule:nonzero;"/>
    </g>
    <g transform="matrix(1.90906,0,0,1.90906,-133.366,75.9559)">
        <path d="M355.52,27.92C356.5,26.63 357.61,25.53 358.85,24.62C360.09,23.72 361.43,23.03 362.88,22.56C364.33,22.09 365.83,21.86 367.38,21.86C369.86,21.86 371.93,22.3 373.58,23.18C375.23,24.06 376.55,25.22 377.53,26.67C378.51,28.12 379.21,29.75 379.62,31.56C380.03,33.37 380.24,35.2 380.24,37.07L380.24,58.63L378.53,58.63L378.53,37.23C378.53,35.78 378.37,34.23 378.06,32.58C377.75,30.93 377.17,29.43 376.32,28.08C375.47,26.74 374.32,25.61 372.87,24.71C371.42,23.81 369.59,23.35 367.36,23.35C365.39,23.35 363.55,23.75 361.82,24.55C360.09,25.35 358.59,26.5 357.32,28C356.05,29.5 355.04,31.32 354.3,33.47C353.55,35.62 353.18,38.06 353.18,40.8L353.18,58.64L351.47,58.64L351.47,31.96C351.47,31.39 351.46,30.69 351.43,29.87C351.4,29.04 351.38,28.2 351.35,27.35C351.32,26.5 351.28,25.68 351.23,24.91C351.18,24.13 351.13,23.49 351.07,22.97L352.78,22.97C352.83,23.49 352.87,24.13 352.9,24.91C352.93,25.69 352.95,26.53 352.98,27.43C353.01,28.34 353.03,29.21 353.06,30.07C353.09,30.92 353.1,31.69 353.1,32.36L353.25,32.36C353.77,30.71 354.52,29.23 355.5,27.94L355.52,27.92Z" style="fill:white;fill-rule:nonzero;"/>
    </g>
    <g transform="matrix(1.90906,0,0,1.90906,-133.366,75.9559)">
        <path d="M397.4,39.39L415.86,22.95L418.26,22.95L399.42,39.47L420.43,58.62L417.87,58.62L397.4,39.78L397.32,39.78L397.32,58.62L395.61,58.62L395.61,0L397.32,0L397.32,39.39L397.4,39.39Z" style="fill:white;fill-rule:nonzero;"/>
    </g>
</svg>
